<svg width="11" height="11" viewBox="0 0 11 11" fill="none" xmlns="http://www.w3.org/2000/svg">
<path d="M9 0.749966H8.625V0.385513C8.625 0.183716 8.46984 0.0105127 8.26805 0.000434526C8.21734 -0.00200841 8.16667 0.0058683 8.1191 0.0235874C8.07153 0.0413066 8.02806 0.0684993 7.99131 0.103518C7.95456 0.138536 7.9253 0.180651 7.90531 0.227311C7.88532 0.27397 7.875 0.324203 7.875 0.374966V0.749966H2.625V0.385513C2.625 0.183716 2.46984 0.0105127 2.26805 0.000434526C2.21734 -0.00200841 2.16667 0.0058683 2.1191 0.0235874C2.07153 0.0413066 2.02806 0.0684993 1.99131 0.103518C1.95456 0.138536 1.9253 0.180651 1.90531 0.227311C1.88532 0.27397 1.875 0.324203 1.875 0.374966V0.749966H1.5C1.10218 0.749966 0.720644 0.908001 0.43934 1.18931C0.158035 1.47061 0 1.85214 0 2.24997V2.53122C0 2.55608 0.00987722 2.57993 0.0274588 2.59751C0.0450403 2.61509 0.068886 2.62497 0.09375 2.62497H10.4062C10.4311 2.62497 10.455 2.61509 10.4725 2.59751C10.4901 2.57993 10.5 2.55608 10.5 2.53122V2.24997C10.5 1.85214 10.342 1.47061 10.0607 1.18931C9.77936 0.908001 9.39783 0.749966 9 0.749966ZM10.4062 3.37497H0.09375C0.068886 3.37497 0.0450403 3.38484 0.0274588 3.40242C0.00987722 3.42001 0 3.44385 0 3.46872V8.99997C0 9.39779 0.158035 9.77932 0.43934 10.0606C0.720644 10.3419 1.10218 10.5 1.5 10.5H9C9.39783 10.5 9.77936 10.3419 10.0607 10.0606C10.342 9.77932 10.5 9.39779 10.5 8.99997V3.46872C10.5 3.44385 10.4901 3.42001 10.4725 3.40242C10.455 3.38484 10.4311 3.37497 10.4062 3.37497ZM4.86516 8.65075C4.57992 8.87598 4.19133 8.99997 3.77063 8.99997C3.11742 8.99997 2.63438 8.57434 2.41922 8.21012C2.36856 8.12447 2.354 8.02219 2.37875 7.9258C2.40349 7.82941 2.46552 7.7468 2.55117 7.69614C2.63683 7.64548 2.7391 7.63092 2.83549 7.65566C2.93188 7.68041 3.0145 7.74243 3.06516 7.82809C3.09047 7.87122 3.32648 8.24997 3.77063 8.24997C4.16109 8.24997 4.61719 8.07911 4.61719 7.59793C4.61719 7.45145 4.58859 7.24754 4.45312 7.10856C4.25297 6.90372 3.91992 6.81161 3.74742 6.81161C3.64797 6.81161 3.55258 6.7721 3.48226 6.70177C3.41193 6.63144 3.37242 6.53606 3.37242 6.43661C3.37242 6.33715 3.41193 6.24177 3.48226 6.17144C3.55258 6.10111 3.64797 6.06161 3.74742 6.06161C3.86109 6.06161 4.15547 6.00067 4.33992 5.812C4.38982 5.76292 4.42921 5.70419 4.45568 5.6394C4.48216 5.57461 4.49516 5.5051 4.49391 5.43512C4.49391 4.89067 3.82289 4.87497 3.74648 4.87497C3.34008 4.87497 3.18867 5.12364 3.18234 5.13418C3.15798 5.17787 3.12513 5.21623 3.08571 5.24702C3.0463 5.27782 3.00112 5.30041 2.95285 5.31349C2.90457 5.32656 2.85416 5.32984 2.8046 5.32314C2.75503 5.31644 2.70731 5.29989 2.66424 5.27447C2.62116 5.24904 2.58361 5.21526 2.55379 5.17511C2.52397 5.13496 2.50248 5.08924 2.49059 5.04066C2.4787 4.99208 2.47665 4.94161 2.48456 4.89222C2.49247 4.84284 2.51017 4.79553 2.53664 4.75309C2.7157 4.4484 3.12773 4.12497 3.74648 4.12497C4.1318 4.12497 4.49086 4.23676 4.75734 4.4395C5.07117 4.67856 5.24391 5.032 5.24391 5.43512C5.24496 5.60225 5.21291 5.76793 5.14959 5.92261C5.08627 6.07728 4.99295 6.21788 4.875 6.33629C4.84805 6.36395 4.81969 6.38973 4.79086 6.41481C4.86127 6.46567 4.92728 6.52235 4.9882 6.58426C5.2357 6.83739 5.36648 7.18778 5.36648 7.59793C5.36719 8.02122 5.18883 8.39504 4.86516 8.65075ZM7.875 8.53122C7.875 8.63067 7.83549 8.72606 7.76517 8.79638C7.69484 8.86671 7.59946 8.90622 7.5 8.90622C7.40054 8.90622 7.30516 8.86671 7.23483 8.79638C7.16451 8.72606 7.125 8.63067 7.125 8.53122V5.25676L6.59742 5.64559C6.55778 5.67483 6.51277 5.69598 6.46495 5.70782C6.41714 5.71966 6.36746 5.72197 6.31875 5.71462C6.27004 5.70726 6.22326 5.69038 6.18108 5.66495C6.13889 5.63951 6.10213 5.60601 6.07289 5.56637C6.04365 5.52673 6.02251 5.48172 6.01066 5.4339C5.99882 5.38609 5.99651 5.33641 6.00387 5.2877C6.01122 5.23899 6.0281 5.19221 6.05354 5.15003C6.07897 5.10784 6.11247 5.07108 6.15211 5.04184L7.16977 4.29184C7.2342 4.24435 7.31214 4.21873 7.39219 4.21872H7.5C7.59946 4.21872 7.69484 4.25822 7.76517 4.32855C7.83549 4.39888 7.875 4.49426 7.875 4.59372V8.53122Z" fill="black"/>
</svg>
