<svg width="28" height="25" viewBox="0 0 28 25" fill="none" xmlns="http://www.w3.org/2000/svg">
<path d="M25.6958 8.54125L23.8718 3.06792C23.6072 2.27123 23.0983 1.57819 22.4173 1.08726C21.7364 0.59634 20.918 0.332508 20.0785 0.333254H7.92117C7.08169 0.332508 6.26332 0.59634 5.58235 1.08726C4.90138 1.57819 4.39243 2.27123 4.12784 3.06792L2.30384 8.54125C1.81932 8.74456 1.40554 9.08627 1.1143 9.5236C0.823054 9.96094 0.667289 10.4745 0.666504 10.9999V17.6666C0.666504 18.6706 1.2305 19.5359 2.05184 19.9906C2.0345 20.0786 1.99984 20.1586 1.99984 20.2506V22.9999C1.99984 23.3535 2.14031 23.6927 2.39036 23.9427C2.64041 24.1928 2.97955 24.3333 3.33317 24.3333H4.6665C5.02013 24.3333 5.35926 24.1928 5.60931 23.9427C5.85936 23.6927 5.99984 23.3535 5.99984 22.9999V20.3333H21.9998V22.9999C21.9998 23.3535 22.1403 23.6927 22.3904 23.9427C22.6404 24.1928 22.9795 24.3333 23.3332 24.3333H24.6665C25.0201 24.3333 25.3593 24.1928 25.6093 23.9427C25.8594 23.6927 25.9998 23.3535 25.9998 22.9999V20.2506C25.9998 20.1586 25.9652 20.0773 25.9478 19.9906C26.3657 19.7628 26.7147 19.4269 26.9584 19.0181C27.2021 18.6093 27.3315 18.1425 27.3332 17.6666V10.9999C27.3332 9.89459 26.6558 8.94525 25.6958 8.54125ZM3.33317 17.6666V10.9999H24.6665L24.6692 17.6666H3.33317ZM7.92117 2.99992H20.0772C20.6518 2.99992 21.1612 3.36525 21.3425 3.91192L22.8172 8.33325H5.1825L6.65584 3.91192C6.7443 3.64631 6.91413 3.41529 7.14124 3.2516C7.36835 3.08791 7.64122 2.99985 7.92117 2.99992Z" fill="#FFB000"/>
</svg>
