<svg width="12" height="12" viewBox="0 0 12 12" fill="none" xmlns="http://www.w3.org/2000/svg">
<path d="M0.8 9.5H11.2V10.5H0.8V9.5ZM1.6 11H10.4V12H1.6V11ZM11.6 3.5C10.9637 3.49909 10.3537 3.18273 9.90375 2.62032C9.45382 2.0579 9.20073 1.29537 9.2 0.5V0H2.8V0.5C2.79927 1.29537 2.54618 2.0579 2.09625 2.62032C1.64632 3.18273 1.0363 3.49909 0.4 3.5H0V5.5H0.4C1.0363 5.50091 1.64632 5.81727 2.09625 6.37968C2.54618 6.9421 2.79927 7.70463 2.8 8.5V9H9.2V8.5C9.20073 7.70463 9.45382 6.9421 9.90375 6.37968C10.3537 5.81727 10.9637 5.50091 11.6 5.5H12V3.5H11.6ZM6 7.5C5.52532 7.5 5.06131 7.32405 4.66663 6.99441C4.27195 6.66476 3.96434 6.19623 3.78269 5.64805C3.60104 5.09987 3.55351 4.49667 3.64612 3.91473C3.73872 3.33279 3.9673 2.79824 4.30294 2.37868C4.63859 1.95912 5.06623 1.6734 5.53178 1.55764C5.99734 1.44189 6.4799 1.5013 6.91844 1.72836C7.35698 1.95542 7.73181 2.33994 7.99553 2.83329C8.25924 3.32664 8.4 3.90666 8.4 4.5C8.39927 5.29537 8.14618 6.0579 7.69625 6.62032C7.24632 7.18273 6.6363 7.49909 6 7.5Z" fill="#438C18"/>
<path d="M2 0.5V0H0V2.5H0.4C0.824204 2.49942 1.2309 2.28852 1.53086 1.91357C1.83082 1.53863 1.99954 1.03026 2 0.5ZM0.4 6.5H0V9H2V8.5C1.99954 7.96974 1.83082 7.46137 1.53086 7.08643C1.2309 6.71148 0.824204 6.50058 0.4 6.5ZM11.6 2.5H12V0H10V0.5C10.0005 1.03026 10.1692 1.53863 10.4691 1.91357C10.7691 2.28852 11.1758 2.49942 11.6 2.5ZM10 8.5V9H12V6.5H11.6C11.1758 6.50058 10.7691 6.71148 10.4691 7.08643C10.1692 7.46137 10.0005 7.96974 10 8.5Z" fill="#438C18"/>
<path d="M6 7C7.10457 7 8 5.88071 8 4.5C8 3.11929 7.10457 2 6 2C4.89543 2 4 3.11929 4 4.5C4 5.88071 4.89543 7 6 7Z" fill="#438C18"/>
</svg>
