<svg width="32" height="32" viewBox="0 0 32 32" fill="none" xmlns="http://www.w3.org/2000/svg">
<path fill-rule="evenodd" clip-rule="evenodd" d="M6.84185 3.11068C6.84185 2.72229 11.4382 0 16.002 0C20.5658 0 25.1622 2.72229 25.1622 3.11068C25.1622 4.49715 24.9933 5.31837 24.8508 5.76542C24.7561 6.05871 24.4416 6.22136 24.0925 6.22136H7.91156C7.56245 6.22136 7.24795 6.05871 7.1533 5.76542C7.0108 5.31837 6.84185 4.49715 6.84185 3.11068ZM14.4753 2.6663C14.2054 2.6663 13.9465 2.75993 13.7556 2.92661C13.5648 3.09328 13.4575 3.31935 13.4575 3.55506C13.4575 3.79078 13.5648 4.01684 13.7556 4.18351C13.9465 4.35019 14.2054 4.44383 14.4753 4.44383H17.5287C17.7987 4.44383 18.0576 4.35019 18.2484 4.18351C18.4393 4.01684 18.5465 3.79078 18.5465 3.55506C18.5465 3.31935 18.4393 3.09328 18.2484 2.92661C18.0576 2.75993 17.7987 2.6663 17.5287 2.6663H14.4753ZM7.89832 11.7477C4.50906 10.8323 5.36401 9.19694 6.65661 7.99889H25.6304C26.6645 9.1525 27.2192 10.7087 24.0935 11.6402C24.2213 12.6303 24.1093 13.6328 23.7649 14.5826C23.4204 15.5325 22.8512 16.4086 22.0941 17.154C21.337 17.8995 20.4089 18.4976 19.37 18.9097C18.3312 19.3218 17.2047 19.5386 16.0637 19.5462C14.9228 19.5537 13.7927 19.3517 12.7468 18.9533C11.701 18.555 10.7627 17.9691 9.9928 17.2337C9.2229 16.4983 8.6386 15.6299 8.27779 14.6846C7.91697 13.7394 7.78768 12.7385 7.89832 11.7468M15.7252 12.4418C18.4142 12.4418 20.4987 12.3174 22.0966 12.1005C22.1491 12.8252 22.0317 13.5515 21.7513 14.2351C21.471 14.9187 21.0338 15.5451 20.4665 16.0759C19.8992 16.6067 19.2137 17.0307 18.452 17.322C17.6904 17.6133 16.8687 17.7657 16.0372 17.7699C15.2057 17.7741 14.382 17.63 13.6166 17.3463C12.8512 17.0627 12.1601 16.6456 11.5858 16.1205C11.0115 15.5955 10.5661 14.9735 10.2768 14.2928C9.98748 13.6121 9.86042 12.887 9.90339 12.1619C11.3924 12.3414 13.3008 12.4418 15.7252 12.4418ZM24.5688 25.4187C23.6482 24.1645 22.381 23.1326 20.884 22.4182C19.3869 21.7037 17.7081 21.3297 16.002 21.3304C14.2953 21.3294 12.6157 21.7035 11.1181 22.4183C9.6204 23.1331 8.35285 24.1655 7.43217 25.4205C7.09048 24.9609 6.56571 24.6284 5.95942 24.4873L3.99303 24.0278C3.34127 23.8752 2.64679 23.9549 2.06235 24.2494C1.47791 24.5439 1.05136 25.0291 0.876533 25.5982L0.0867209 28.1739C0.000220276 28.4557 -0.0218502 28.7497 0.02177 29.039C0.0653902 29.3283 0.173847 29.6073 0.340946 29.86C0.508045 30.1127 0.730514 30.3342 0.995649 30.5118C1.26078 30.6895 1.56339 30.8198 1.88619 30.8953L3.85156 31.3556C4.18214 31.4334 4.52733 31.4519 4.86633 31.4101C5.20533 31.3682 5.53111 31.2669 5.82405 31.1121C5.82486 31.3478 5.93287 31.5736 6.12432 31.7398C6.31576 31.906 6.57497 31.9989 6.8449 31.9982C7.11484 31.9975 7.3734 31.9032 7.5637 31.736C7.754 31.5688 7.86046 31.3425 7.85965 31.1068V30.218C7.85965 29.8794 7.88713 29.5461 7.93903 29.2199L13.2357 30.4598C13.4815 30.9193 13.8724 31.3081 14.3624 31.5804C14.8524 31.8528 15.4212 31.9975 16.002 31.9975C16.5829 31.9975 17.1517 31.8528 17.6417 31.5804C18.1317 31.3081 18.5226 30.9193 18.7684 30.4598L24.065 29.2199C24.1169 29.5461 24.1444 29.8794 24.1444 30.218V31.1068C24.1431 31.3425 24.249 31.569 24.4389 31.7365C24.6288 31.904 24.8872 31.9988 25.1571 32C25.4271 32.0012 25.6865 31.9087 25.8783 31.7428C26.0701 31.577 26.1787 31.3514 26.18 31.1157C26.75 31.4143 27.4543 31.5183 28.1474 31.3556L30.1138 30.8961C30.4366 30.8206 30.7392 30.6904 31.0044 30.5127C31.2695 30.3351 31.492 30.1136 31.6591 29.8609C31.8262 29.6082 31.9346 29.3292 31.9782 29.0399C32.0219 28.7506 31.9998 28.4566 31.9133 28.1747L31.1224 25.5991C30.9476 25.03 30.5211 24.5448 29.9366 24.2503C29.3522 23.9558 28.6577 23.8761 28.0059 24.0287L26.0396 24.4881C25.4347 24.6288 24.9108 24.9608 24.5688 25.4187ZM8.47338 27.5037C9.02332 26.3428 9.9154 25.3296 11.059 24.5672C12.2025 23.8048 13.5568 23.3203 14.9842 23.163V26.8149C14.5281 26.9562 14.1169 27.1899 13.7842 27.4969C13.4516 27.8039 13.2071 28.1754 13.0708 28.5809L8.47338 27.5037ZM23.5307 27.5037C22.9807 26.3428 22.0886 25.3297 20.945 24.5673C19.8015 23.8049 18.4472 23.3204 17.0198 23.163V26.8149C17.9399 27.0993 18.6585 27.757 18.9333 28.5809L23.5307 27.5037ZM16.002 30.218C16.272 30.218 16.5309 30.1244 16.7217 29.9577C16.9126 29.791 17.0198 29.565 17.0198 29.3293C17.0198 29.0935 16.9126 28.8675 16.7217 28.7008C16.5309 28.5341 16.272 28.4405 16.002 28.4405C15.7321 28.4405 15.4732 28.5341 15.2823 28.7008C15.0915 28.8675 14.9842 29.0935 14.9842 29.3293C14.9842 29.565 15.0915 29.791 15.2823 29.9577C15.4732 30.1244 15.7321 30.218 16.002 30.218Z" fill="#FFB000"/>
</svg>
