<svg width="20" height="20" viewBox="0 0 20 20" fill="none" xmlns="http://www.w3.org/2000/svg">
<path d="M2.28393 6.31345H2.55761C3.61128 6.31345 4.47337 7.17555 4.47337 8.22922V17.808C4.47337 18.8617 3.61128 19.7238 2.55761 19.7238H2.28393C1.23026 19.7238 0.368164 18.8617 0.368164 17.808V8.22922C0.368164 7.17555 1.23026 6.31345 2.28393 6.31345ZM9.94698 0.566162C11.0007 0.566162 11.8627 1.42826 11.8627 2.48193V17.808C11.8627 18.8617 11.0007 19.7238 9.94698 19.7238C8.89331 19.7238 8.03122 18.8617 8.03122 17.808V2.48193C8.03122 1.42826 8.89331 0.566162 9.94698 0.566162ZM17.61 11.5134C18.6637 11.5134 19.5258 12.3755 19.5258 13.4291V17.808C19.5258 18.8617 18.6637 19.7238 17.61 19.7238C16.5564 19.7238 15.6943 18.8617 15.6943 17.808V13.4291C15.6943 12.3755 16.5564 11.5134 17.61 11.5134Z" fill="#FFB000"/>
</svg>
