<svg width="10" height="10" viewBox="0 0 10 10" fill="none" xmlns="http://www.w3.org/2000/svg">
<path d="M0.259376 9.97576C0.183659 9.94629 0.117971 9.89083 0.0714735 9.81713C0.0249763 9.74343 -1.00869e-05 9.65517 3.05468e-09 9.56464C3.05468e-09 7.57834 0.352886 5.98984 1.04928 4.8429C1.89063 3.45711 3.2178 2.71095 5.00002 2.61829V0.43472C5.00002 0.34959 5.02214 0.266334 5.06363 0.195282C5.10511 0.124231 5.16413 0.0685091 5.23338 0.0350304C5.30262 0.00155163 5.37904 -0.008211 5.45315 0.00695349C5.52725 0.022118 5.59579 0.0615423 5.65026 0.120336L9.88104 4.6853C9.91864 4.72589 9.94857 4.77468 9.96901 4.82872C9.98946 4.88275 10 4.94091 10 4.99968C10 5.05845 9.98946 5.11661 9.96901 5.17065C9.94857 5.22468 9.91864 5.27347 9.88104 5.31407L5.65026 9.87903C5.59579 9.93782 5.52725 9.97725 5.45315 9.99241C5.37904 10.0076 5.30262 9.99781 5.23338 9.96433C5.16413 9.93086 5.10511 9.87513 5.06363 9.80408C5.02214 9.73303 5.00002 9.64978 5.00002 9.56464V7.3971C3.91828 7.43406 3.10097 7.63214 2.45025 8.01229C1.74712 8.42313 1.23726 9.03696 0.687743 9.83284C0.638445 9.90419 0.570671 9.95637 0.493878 9.98209C0.417085 10.0078 0.335104 10.0058 0.259376 9.97631V9.97576Z" fill="black"/>
</svg>
