<svg width="14" height="14" viewBox="0 0 14 14" fill="none" xmlns="http://www.w3.org/2000/svg">
<path fill-rule="evenodd" clip-rule="evenodd" d="M7.0002 8.04995C7.7428 8.04995 8.45499 7.75495 8.98009 7.22985C9.5052 6.70475 9.8002 5.99256 9.8002 5.24995C9.8002 4.50734 9.5052 3.79515 8.98009 3.27005C8.45499 2.74495 7.7428 2.44995 7.0002 2.44995C6.25759 2.44995 5.5454 2.74495 5.0203 3.27005C4.49519 3.79515 4.2002 4.50734 4.2002 5.24995C4.2002 5.99256 4.49519 6.70475 5.0203 7.22985C5.5454 7.75495 6.25759 8.04995 7.0002 8.04995ZM7.0002 7.34995C7.27597 7.34995 7.54905 7.29563 7.80383 7.1901C8.05861 7.08456 8.29012 6.92988 8.48512 6.73488C8.68012 6.53987 8.83481 6.30837 8.94034 6.05359C9.04588 5.7988 9.1002 5.52573 9.1002 5.24995C9.1002 4.97418 9.04588 4.7011 8.94034 4.44632C8.83481 4.19153 8.68012 3.96003 8.48512 3.76503C8.29012 3.57002 8.05861 3.41534 7.80383 3.3098C7.54905 3.20427 7.27597 3.14995 7.0002 3.14995C6.44324 3.14995 5.9091 3.3712 5.51527 3.76503C5.12144 4.15885 4.9002 4.693 4.9002 5.24995C4.9002 5.80691 5.12144 6.34105 5.51527 6.73488C5.9091 7.1287 6.44324 7.34995 7.0002 7.34995Z" fill="#6A7380"/>
<path fill-rule="evenodd" clip-rule="evenodd" d="M14 7C14 10.8661 10.8661 14 7 14C3.1339 14 0 10.8661 0 7C0 3.1339 3.1339 0 7 0C10.8661 0 14 3.1339 14 7ZM10.3705 12.3235C9.36284 12.9632 8.19354 13.3019 7 13.3C5.77797 13.3019 4.58201 12.9467 3.55915 12.278C3.47515 12.173 3.38975 12.0645 3.30365 11.9525C3.20361 11.8213 3.14961 11.6608 3.15 11.4958C3.15 11.1188 3.4209 10.8027 3.78315 10.7499C6.1789 10.3999 7.82845 10.43 10.2274 10.7621C10.4011 10.7873 10.5598 10.8745 10.6743 11.0076C10.7887 11.1407 10.8511 11.3108 10.85 11.4863C10.85 11.6543 10.7922 11.8174 10.6879 11.9448C10.5805 12.0757 10.4745 12.202 10.3705 12.3235ZM11.5448 11.3631C11.4888 10.7079 10.9914 10.1612 10.3232 10.0688C7.86765 9.72895 6.15125 9.6964 3.682 10.0573C3.01 10.1552 2.51475 10.7068 2.45595 11.3638C1.32731 10.1917 0.697776 8.62718 0.7 7C0.7 3.52065 3.52065 0.7 7 0.7C10.4794 0.7 13.3 3.52065 13.3 7C13.3022 8.62683 12.673 10.191 11.5448 11.3631Z" fill="#6A7380"/>
</svg>
