<svg width="24" height="24" viewBox="0 0 24 24" fill="none" xmlns="http://www.w3.org/2000/svg">
<path d="M12 18.6667C12.3778 18.6667 12.6947 18.5387 12.9507 18.2827C13.2067 18.0267 13.3342 17.7102 13.3333 17.3333C13.3333 16.9556 13.2053 16.6391 12.9493 16.384C12.6933 16.1289 12.3769 16.0009 12 16C11.6222 16 11.3058 16.128 11.0507 16.384C10.7956 16.64 10.6676 16.9564 10.6667 17.3333C10.6667 17.7111 10.7947 18.028 11.0507 18.284C11.3067 18.54 11.6231 18.6676 12 18.6667ZM10.6667 13.3333H13.3333V5.33333H10.6667V13.3333ZM7 24L0 17V7L7 0H17L24 7V17L17 24H7ZM8.13333 21.3333H15.8667L21.3333 15.8667V8.13333L15.8667 2.66667H8.13333L2.66667 8.13333V15.8667L8.13333 21.3333Z" fill="#FFB000"/>
</svg>
