<svg width="13" height="13" viewBox="0 0 13 13" fill="none" xmlns="http://www.w3.org/2000/svg">
<path d="M6.4623 0C6.86228 0 7.24587 0.136964 7.5287 0.380761C7.81153 0.624558 7.97042 0.955218 7.97042 1.3C7.97042 2.0215 7.2993 2.6 6.4623 2.6C6.06232 2.6 5.67872 2.46304 5.39589 2.21924C5.11307 1.97544 4.95418 1.64478 4.95418 1.3C4.95418 0.955218 5.11307 0.624558 5.39589 0.380761C5.67872 0.136964 6.06232 0 6.4623 0ZM6.75638 8.3135C7.82752 8.30991 8.89787 8.36418 9.96114 8.476C10.0064 6.708 9.82541 5.148 9.47854 4.55C9.38051 4.3745 9.24478 4.225 9.10151 4.095L3.01624 8.593C4.04176 8.45 5.33121 8.3135 6.75638 8.3135ZM3.03886 9.75C3.13689 10.881 3.33295 12.025 3.64965 13H5.21056C4.99188 12.428 4.83353 11.7585 4.71288 11.05C4.71288 11.05 6.4623 10.764 8.21172 11.05C8.09107 11.7585 7.93271 12.428 7.71404 13H9.27494C9.60673 11.9925 9.80278 10.7965 9.90081 9.6135C8.85742 9.50476 7.80737 9.45049 6.75638 9.451C5.30104 9.451 4.03422 9.5875 3.03886 9.75ZM6.4623 3.25C6.4623 3.25 4.20012 3.25 3.44606 4.55C3.18967 4.992 3.02378 5.9475 2.971 7.124L7.91009 3.471C7.16357 3.25 6.4623 3.25 6.4623 3.25ZM11.4165 2.3855L10.5568 1.521L7.91009 3.4775C8.32483 3.601 8.76218 3.796 9.10151 4.095L11.4165 2.3855ZM13 8.9895C12.9321 8.97 11.8463 8.6645 9.96114 8.476C9.9536 8.8465 9.93097 9.23 9.90081 9.6135C11.5974 9.7955 12.5702 10.075 12.5853 10.075L13 8.9895ZM2.971 7.124L0 9.321L0.671114 10.283C0.686195 10.2765 1.5609 9.984 3.03886 9.75C2.95592 8.8335 2.93329 7.93 2.971 7.124Z" fill="black"/>
</svg>
