<svg width="12" height="12" viewBox="0 0 12 12" fill="none" xmlns="http://www.w3.org/2000/svg">
<path d="M6 0C2.69163 0 0 2.69163 0 6C0 9.30837 2.69163 12 6 12C9.30837 12 12 9.30837 12 6C12 2.69163 9.30837 0 6 0ZM4.55135 3.36981C4.91683 2.9824 5.43115 2.76923 6 2.76923C6.56885 2.76923 7.07856 2.98385 7.44548 3.37327C7.81731 3.76788 7.99817 4.29808 7.95548 4.86808C7.8701 6 6.99317 6.92308 6 6.92308C5.00683 6.92308 4.12817 6 4.04452 4.86779C4.00212 4.29317 4.18269 3.76125 4.55135 3.36981ZM6 11.0769C5.32225 11.0774 4.65131 10.9417 4.02697 10.678C3.40263 10.4143 2.8376 10.0279 2.36538 9.54173C2.63583 9.15605 2.98043 8.82812 3.37904 8.57712C4.11433 8.10577 5.0449 7.84615 6 7.84615C6.9551 7.84615 7.88567 8.10577 8.6201 8.57712C9.01904 8.82801 9.36394 9.15594 9.63462 9.54173C9.16244 10.028 8.59742 10.4144 7.97307 10.6781C7.34872 10.9418 6.67776 11.0774 6 11.0769Z" fill="black"/>
</svg>
