<svg width="5" height="12" viewBox="0 0 5 12" fill="none" xmlns="http://www.w3.org/2000/svg">
<path d="M5 2.07492C4.99998 1.68491 4.86753 1.3028 4.61785 0.972411C4.36816 0.64202 4.01135 0.376722 3.58832 0.20694C3.1653 0.0371579 2.69319 -0.030235 2.22613 0.0124896C1.75907 0.0552141 1.31598 0.206326 0.947652 0.448498C0.579328 0.690669 0.300688 1.0141 0.143684 1.38169C-0.0133195 1.74928 -0.0423304 2.14616 0.059978 2.52681C0.162286 2.90746 0.391772 3.25648 0.72212 3.53383C1.05247 3.81119 1.4703 4.00566 1.92771 4.09494V11.2L2.5 12L3.07229 11.2V4.09494C3.62017 3.98672 4.10823 3.72863 4.45791 3.36221C4.80758 2.99579 4.99853 2.54236 5 2.07492ZM3.22289 1.92492C3.09779 1.92492 2.9755 1.89413 2.87148 1.83644C2.76746 1.77875 2.68639 1.69676 2.63851 1.60082C2.59064 1.50489 2.57811 1.39933 2.60252 1.29749C2.62692 1.19565 2.68716 1.1021 2.77563 1.02868C2.86409 0.955256 2.97679 0.905254 3.09949 0.884997C3.22219 0.86474 3.34937 0.875136 3.46495 0.914873C3.58053 0.954609 3.67932 1.0219 3.74882 1.10824C3.81833 1.19457 3.85542 1.29608 3.85542 1.39991C3.85542 1.53915 3.78878 1.67269 3.67016 1.77115C3.55154 1.86961 3.39065 1.92492 3.22289 1.92492Z" fill="black"/>
</svg>
