<svg width="26" height="26" viewBox="0 0 26 26" fill="none" xmlns="http://www.w3.org/2000/svg">
<path d="M20.805 23.5881H21.3344C22.5762 23.5881 23.564 22.9224 24.4508 21.9916C26.7039 19.627 21.4077 17.2349 19.5996 17.2349" stroke="#FFB000" stroke-width="2" stroke-linecap="round" stroke-linejoin="round"/>
<path d="M16.5996 3.92057C16.8721 3.85699 17.1551 3.82349 17.4453 3.82349C19.6292 3.82349 21.3996 5.71969 21.3996 8.05878C21.3996 10.3979 19.6292 12.2941 17.4453 12.2941C17.1551 12.2941 16.8721 12.2606 16.5996 12.197" stroke="#FFB000" stroke-width="2" stroke-linecap="round"/>
<path d="M4.33907 18.098C3.01862 18.99 -0.443526 20.8113 1.66515 23.0904C2.69522 24.2037 3.84246 24.9999 5.28481 24.9999H13.5152C14.9575 24.9999 16.1048 24.2037 17.1348 23.0904C19.2435 20.8113 15.7814 18.99 14.4609 18.098C11.3645 16.0064 7.43551 16.0064 4.33907 18.098Z" stroke="#FFB000" stroke-width="2" stroke-linecap="round" stroke-linejoin="round"/>
<path d="M14.1996 6.64706C14.1996 9.76584 12.0506 12.2941 9.39961 12.2941C6.74864 12.2941 4.59961 9.76584 4.59961 6.64706C4.59961 3.52827 6.74864 1 9.39961 1C12.0506 1 14.1996 3.52827 14.1996 6.64706Z" stroke="#FFB000" stroke-width="2"/>
</svg>
