<svg width="40" height="40" viewBox="0 0 40 40" fill="none" xmlns="http://www.w3.org/2000/svg">
<circle opacity="0.8" cx="20" cy="20" r="20" fill="white"/>
<path d="M29.0002 29.0002L24.6572 24.6572M24.6572 24.6572C25.4001 23.9143 25.9894 23.0324 26.3914 22.0618C26.7935 21.0911 27.0004 20.0508 27.0004 19.0002C27.0004 17.9496 26.7935 16.9093 26.3914 15.9387C25.9894 14.968 25.4001 14.0861 24.6572 13.3432C23.9143 12.6003 23.0324 12.011 22.0618 11.609C21.0911 11.2069 20.0508 11 19.0002 11C17.9496 11 16.9093 11.2069 15.9387 11.609C14.968 12.011 14.0861 12.6003 13.3432 13.3432C11.8429 14.8435 11 16.8784 11 19.0002C11 21.122 11.8429 23.1569 13.3432 24.6572C14.8435 26.1575 16.8784 27.0004 19.0002 27.0004C21.122 27.0004 23.1569 26.1575 24.6572 24.6572ZM19.0002 16.0002V22.0002M16.0002 19.0002H22.0002" stroke="#48525B" stroke-width="1.5" stroke-linecap="round" stroke-linejoin="round"/>
</svg>
