<svg width="25" height="26" viewBox="0 0 25 26" fill="none" xmlns="http://www.w3.org/2000/svg">
<path d="M16.5365 3.87451C17.8165 4.61343 18.9094 5.63692 19.7306 6.86579C20.5518 8.09467 21.0793 9.496 21.2723 10.9614C21.4653 12.4267 21.3185 13.9168 20.8435 15.3164C20.3684 16.716 19.5777 17.9875 18.5326 19.0326C17.4875 20.0777 16.216 20.8684 14.8164 21.3435C13.4168 21.8185 11.9267 21.9653 10.4614 21.7723C8.996 21.5793 7.59467 21.0518 6.36579 20.2306C5.13692 19.4094 4.11343 18.3165 3.37451 17.0365" stroke="#00261C" stroke-linecap="round" stroke-linejoin="round"/>
<path d="M16.6771 4.01554C17.737 5.85238 18.1614 7.9876 17.8844 10.0902C17.6073 12.1927 16.6444 14.1451 15.1448 15.6447C13.6452 17.1443 11.6928 18.1072 9.59023 18.3843C7.48768 18.6613 5.35246 18.237 3.51562 17.177M5.20833 4.66659V6.74992M4.16667 5.70825H6.25M6.25 9.87492V11.4374M5.46875 10.6562H7.03125M15.8854 7.79159V9.35409M15.1042 8.57284H16.6667M20.0521 3.3645V4.927M19.2708 4.14575H20.8333M3.90625 21.8541H5.46875M4.6875 21.0728V22.6353M20.5729 19.2499H22.1354M21.3542 18.4687L21.3646 20.0312" stroke="#00261C" stroke-linecap="round" stroke-linejoin="round"/>
</svg>
