<svg width="21" height="21" viewBox="0 0 21 21" fill="none" xmlns="http://www.w3.org/2000/svg">
<path fill-rule="evenodd" clip-rule="evenodd" d="M4.48996 2.04138C4.48996 1.7865 7.50634 0 10.5013 0C13.4963 0 16.5127 1.7865 16.5127 2.04138C16.5127 2.95126 16.4018 3.49018 16.3083 3.78356C16.2462 3.97603 16.0398 4.08277 15.8107 4.08277H5.19196C4.96286 4.08277 4.75647 3.97603 4.69435 3.78356C4.60084 3.49018 4.48996 2.95126 4.48996 2.04138ZM9.49944 1.74976C9.32229 1.74976 9.1524 1.81121 9.02714 1.92059C8.90188 2.02997 8.83151 2.17832 8.83151 2.33301C8.83151 2.4877 8.90188 2.63605 9.02714 2.74543C9.1524 2.85481 9.32229 2.91626 9.49944 2.91626H11.5032C11.6804 2.91626 11.8503 2.85481 11.9755 2.74543C12.1008 2.63605 12.1712 2.4877 12.1712 2.33301C12.1712 2.17832 12.1008 2.02997 11.9755 1.92059C11.8503 1.81121 11.6804 1.74976 11.5032 1.74976H9.49944ZM5.18328 7.70943C2.95907 7.10868 3.52013 6.03549 4.3684 5.24927H16.82C17.4986 6.00633 17.8626 7.02761 15.8114 7.63885C15.8952 8.28861 15.8217 8.9465 15.5957 9.56986C15.3696 10.1932 14.9961 10.7681 14.4992 11.2573C14.0024 11.7465 13.3933 12.1391 12.7116 12.4095C12.0298 12.6799 11.2906 12.8222 10.5418 12.8272C9.79306 12.8321 9.05145 12.6996 8.36511 12.4381C7.67877 12.1767 7.06301 11.7922 6.55777 11.3096C6.05253 10.827 5.66908 10.2571 5.4323 9.63679C5.19551 9.01647 5.11067 8.35963 5.18328 7.70884M10.3197 8.16495C12.0843 8.16495 13.4523 8.08329 14.5009 7.94098C14.5354 8.41651 14.4583 8.89319 14.2743 9.34178C14.0904 9.79038 13.8034 10.2014 13.4311 10.5498C13.0588 10.8981 12.609 11.1764 12.1092 11.3676C11.6093 11.5587 11.0701 11.6588 10.5244 11.6615C9.97875 11.6643 9.4382 11.5697 8.93589 11.3835C8.43358 11.1974 7.98008 10.9237 7.6032 10.5791C7.22632 10.2345 6.934 9.82637 6.74414 9.37965C6.55429 8.93294 6.4709 8.45707 6.4991 7.98122C7.47628 8.09904 8.72865 8.16495 10.3197 8.16495ZM16.1233 16.681C15.5191 15.8579 14.6876 15.1808 13.7051 14.7119C12.7227 14.2431 11.6209 13.9976 10.5013 13.9981C9.38128 13.9974 8.27906 14.243 7.29623 14.712C6.31339 15.1811 5.48156 15.8586 4.87736 16.6822C4.65313 16.3806 4.30874 16.1624 3.91087 16.0698L2.62043 15.7682C2.19271 15.6681 1.73696 15.7204 1.35342 15.9137C0.969876 16.107 0.689956 16.4253 0.575225 16.7988L0.0569106 18.4891C0.000144556 18.6741 -0.0143392 18.867 0.0142866 19.0569C0.0429123 19.2467 0.114087 19.4298 0.223746 19.5956C0.333405 19.7615 0.4794 19.9068 0.653394 20.0234C0.827389 20.14 1.02597 20.2255 1.23781 20.275L2.52758 20.5771C2.74453 20.6282 2.97106 20.6403 3.19353 20.6128C3.416 20.5854 3.62979 20.5189 3.82203 20.4173C3.82257 20.572 3.89345 20.7202 4.01908 20.8292C4.14472 20.9383 4.31482 20.9993 4.49197 20.9988C4.66911 20.9984 4.83879 20.9365 4.96368 20.8268C5.08856 20.717 5.15843 20.5685 5.15789 20.4138V19.8306C5.15789 19.6084 5.17593 19.3896 5.20999 19.1756L8.6859 19.9892C8.84725 20.2908 9.10375 20.5459 9.42531 20.7247C9.74688 20.9034 10.1202 20.9983 10.5013 20.9983C10.8825 20.9983 11.2558 20.9034 11.5774 20.7247C11.8989 20.5459 12.1554 20.2908 12.3168 19.9892L15.7927 19.1756C15.8267 19.3896 15.8448 19.6084 15.8448 19.8306V20.4138C15.8439 20.5685 15.9134 20.7172 16.038 20.8271C16.1627 20.937 16.3322 20.9992 16.5094 21C16.6865 21.0008 16.8568 20.9401 16.9826 20.8312C17.1085 20.7224 17.1798 20.5743 17.1806 20.4197C17.5547 20.6156 18.0169 20.6839 18.4717 20.5771L19.7622 20.2756C19.974 20.226 20.1726 20.1406 20.3466 20.024C20.5206 19.9074 20.6666 19.7621 20.7763 19.5962C20.8859 19.4304 20.9571 19.2473 20.9857 19.0574C21.0143 18.8676 20.9999 18.6747 20.9431 18.4897L20.4241 16.7994C20.3094 16.4259 20.0295 16.1075 19.6459 15.9143C19.2624 15.721 18.8066 15.6687 18.3789 15.7688L17.0885 16.0703C16.6915 16.1626 16.3477 16.3805 16.1233 16.681ZM5.56066 18.0493C5.92156 17.2874 6.50698 16.6226 7.25744 16.1222C8.0079 15.6219 8.89666 15.304 9.83341 15.2007V17.5973C9.53407 17.69 9.26418 17.8434 9.0459 18.0449C8.82762 18.2463 8.66716 18.4901 8.5777 18.7562L5.56066 18.0493ZM15.442 18.0493C15.0811 17.2875 14.4956 16.6226 13.7452 16.1223C12.9947 15.622 12.106 15.304 11.1693 15.2007V17.5973C11.7731 17.7839 12.2446 18.2155 12.425 18.7562L15.442 18.0493ZM10.5013 19.8306C10.6785 19.8306 10.8484 19.7691 10.9736 19.6597C11.0989 19.5504 11.1693 19.402 11.1693 19.2473C11.1693 19.0926 11.0989 18.9443 10.9736 18.8349C10.8484 18.7255 10.6785 18.6641 10.5013 18.6641C10.3242 18.6641 10.1543 18.7255 10.029 18.8349C9.90378 18.9443 9.83341 19.0926 9.83341 19.2473C9.83341 19.402 9.90378 19.5504 10.029 19.6597C10.1543 19.7691 10.3242 19.8306 10.5013 19.8306Z" fill="white"/>
</svg>
