<svg width="21" height="21" viewBox="0 0 21 21" fill="none" xmlns="http://www.w3.org/2000/svg">
<path d="M10.4861 4.59375C7.28934 4.59375 4.01014 6.44396 1.42861 10.1444C1.35493 10.2512 1.31455 10.3774 1.31258 10.5071C1.3106 10.6369 1.34713 10.7643 1.41754 10.8732C3.40106 13.9781 6.63637 16.4062 10.4861 16.4062C14.294 16.4062 17.5957 13.9707 19.583 10.8589C19.6517 10.752 19.6883 10.6277 19.6883 10.5006C19.6883 10.3736 19.6517 10.2492 19.583 10.1423C17.5912 7.06617 14.2653 4.59375 10.4861 4.59375Z" stroke="#48525B" stroke-width="1.5" stroke-linecap="round" stroke-linejoin="round"/>
<path d="M10.5 13.7812C12.3122 13.7812 13.7812 12.3122 13.7812 10.5C13.7812 8.68782 12.3122 7.21875 10.5 7.21875C8.68782 7.21875 7.21875 8.68782 7.21875 10.5C7.21875 12.3122 8.68782 13.7812 10.5 13.7812Z" stroke="#48525B" stroke-width="1.5" stroke-miterlimit="10"/>
</svg>
