<svg width="51" height="35" viewBox="0 0 51 35" fill="none" xmlns="http://www.w3.org/2000/svg">
<path d="M14.91 14V4.64H17.796C17.8913 4.64 18.0582 4.64217 18.2965 4.6465C18.5348 4.65083 18.7623 4.66817 18.979 4.6985C19.7027 4.79383 20.3072 5.05817 20.7925 5.4915C21.2822 5.9205 21.6505 6.4665 21.8975 7.1295C22.1445 7.7925 22.268 8.52267 22.268 9.32C22.268 10.1173 22.1445 10.8475 21.8975 11.5105C21.6505 12.1735 21.2822 12.7217 20.7925 13.155C20.3072 13.584 19.7027 13.8462 18.979 13.9415C18.7623 13.9675 18.5327 13.9848 18.29 13.9935C18.0517 13.9978 17.887 14 17.796 14H14.91ZM16.0995 12.895H17.796C17.9607 12.895 18.1448 12.8907 18.3485 12.882C18.5522 12.869 18.7298 12.8495 18.8815 12.8235C19.3928 12.7282 19.8067 12.5137 20.123 12.18C20.4393 11.8463 20.6712 11.4303 20.8185 10.932C20.9658 10.4337 21.0395 9.89633 21.0395 9.32C21.0395 8.73067 20.9637 8.18683 20.812 7.6885C20.6647 7.19017 20.4328 6.77633 20.1165 6.447C19.8002 6.11767 19.3885 5.9075 18.8815 5.8165C18.7298 5.78617 18.55 5.76667 18.342 5.758C18.134 5.74933 17.952 5.745 17.796 5.745H16.0995V12.895ZM23.7586 14V6.98H24.7921V8.6765L24.6231 8.4555C24.7055 8.23883 24.8116 8.0395 24.9416 7.8575C25.076 7.6755 25.2255 7.526 25.3901 7.409C25.5721 7.26167 25.778 7.149 26.0076 7.071C26.2373 6.993 26.4713 6.9475 26.7096 6.9345C26.948 6.91717 27.1711 6.93233 27.3791 6.98V8.0655C27.1365 8.0005 26.87 7.98317 26.5796 8.0135C26.2893 8.04383 26.0206 8.15 25.7736 8.332C25.5483 8.49233 25.3728 8.68733 25.2471 8.917C25.1258 9.14667 25.0413 9.39583 24.9936 9.6645C24.946 9.92883 24.9221 10.1997 24.9221 10.477V14H23.7586ZM28.7382 5.7385V4.5425H29.8952V5.7385H28.7382ZM28.7382 14V6.98H29.8952V14H28.7382ZM33.7435 14L31.1955 6.98H32.3655L34.335 12.5245L36.298 6.98H37.4745L34.9265 14H33.7435ZM41.4383 14.195C40.7493 14.195 40.147 14.0433 39.6313 13.74C39.12 13.4323 38.7213 13.0055 38.4353 12.4595C38.1493 11.9092 38.0063 11.2678 38.0063 10.5355C38.0063 9.7685 38.1472 9.1055 38.4288 8.5465C38.7105 7.98317 39.1027 7.54983 39.6053 7.2465C40.1123 6.93883 40.706 6.785 41.3863 6.785C42.0927 6.785 42.6928 6.9475 43.1868 7.2725C43.6852 7.5975 44.0578 8.06117 44.3048 8.6635C44.5562 9.26583 44.6645 9.983 44.6298 10.815H43.4598V10.399C43.4468 9.53667 43.2713 8.89317 42.9333 8.4685C42.5953 8.0395 42.0927 7.825 41.4253 7.825C40.7103 7.825 40.1665 8.05467 39.7938 8.514C39.4212 8.97333 39.2348 9.632 39.2348 10.49C39.2348 11.3177 39.4212 11.959 39.7938 12.414C40.1665 12.869 40.6973 13.0965 41.3863 13.0965C41.85 13.0965 42.253 12.9903 42.5953 12.778C42.9377 12.5657 43.2063 12.2602 43.4013 11.8615L44.5128 12.245C44.2398 12.8647 43.8282 13.3457 43.2778 13.688C42.7318 14.026 42.1187 14.195 41.4383 14.195ZM38.8448 10.815V9.8855H44.0318V10.815H38.8448ZM46.077 14V6.98H47.1105V8.6765L46.9415 8.4555C47.0238 8.23883 47.13 8.0395 47.26 7.8575C47.3943 7.6755 47.5438 7.526 47.7085 7.409C47.8905 7.26167 48.0963 7.149 48.326 7.071C48.5557 6.993 48.7897 6.9475 49.028 6.9345C49.2663 6.91717 49.4895 6.93233 49.6975 6.98V8.0655C49.4548 8.0005 49.1883 7.98317 48.898 8.0135C48.6077 8.04383 48.339 8.15 48.092 8.332C47.8667 8.49233 47.6912 8.68733 47.5655 8.917C47.4442 9.14667 47.3597 9.39583 47.312 9.6645C47.2643 9.92883 47.2405 10.1997 47.2405 10.477V14H46.077Z" fill="#AFAFAF"/>
<path d="M19.625 31V29.1175H14.75V27.6325L18.26 20.2H20.0525L16.5425 27.6325H19.625V24.7075H21.215V27.6325H22.2875V29.1175H21.215V31H19.625ZM24.0651 31V29.3425H25.7226V31H24.0651ZM28.6496 31L32.4446 21.6925H27.6371V20.2H34.1321V21.6925L30.3446 31H28.6496Z" fill="#48525B"/>
<path d="M10 9C10 11.7614 7.76142 14 5 14C2.23858 14 0 11.7614 0 9C0 6.23858 2.23858 4 5 4C7.76142 4 10 6.23858 10 9Z" fill="#48525B"/>
</svg>
