<svg width="46" height="35" viewBox="0 0 46 35" fill="none" xmlns="http://www.w3.org/2000/svg">
<path d="M14.91 14V4.64H18.6085C18.6995 4.64 18.8078 4.64433 18.9335 4.653C19.0592 4.65733 19.1805 4.67033 19.2975 4.692C19.8045 4.77 20.2292 4.94333 20.5715 5.212C20.9182 5.48067 21.1782 5.82083 21.3515 6.2325C21.5248 6.63983 21.6115 7.09267 21.6115 7.591C21.6115 8.31467 21.423 8.943 21.046 9.476C20.669 10.0047 20.1165 10.3362 19.3885 10.4705L18.9465 10.542H16.067V14H14.91ZM20.4805 14L18.6345 10.191L19.7785 9.84L21.8065 14H20.4805ZM16.067 9.4435H18.5695C18.6518 9.4435 18.745 9.43917 18.849 9.4305C18.9573 9.42183 19.0592 9.40667 19.1545 9.385C19.4535 9.31567 19.6962 9.19 19.8825 9.008C20.0732 8.82167 20.2118 8.605 20.2985 8.358C20.3852 8.10667 20.4285 7.851 20.4285 7.591C20.4285 7.331 20.3852 7.0775 20.2985 6.8305C20.2118 6.57917 20.0732 6.36033 19.8825 6.174C19.6962 5.98767 19.4535 5.862 19.1545 5.797C19.0592 5.771 18.9573 5.75583 18.849 5.7515C18.745 5.74283 18.6518 5.7385 18.5695 5.7385H16.067V9.4435ZM23.3681 5.7385V4.5425H24.5251V5.7385H23.3681ZM23.3681 14V6.98H24.5251V14H23.3681ZM29.2314 14.195C28.5771 14.195 28.0159 14.0325 27.5479 13.7075C27.0799 13.3782 26.7181 12.934 26.4624 12.375C26.2111 11.816 26.0854 11.1855 26.0854 10.4835C26.0854 9.7815 26.2111 9.151 26.4624 8.592C26.7181 8.033 27.0799 7.59317 27.5479 7.2725C28.0159 6.9475 28.5749 6.785 29.2249 6.785C29.8879 6.785 30.4448 6.94533 30.8954 7.266C31.3461 7.58667 31.6863 8.0265 31.9159 8.5855C32.1499 9.1445 32.2669 9.77717 32.2669 10.4835C32.2669 11.1812 32.1499 11.8117 31.9159 12.375C31.6863 12.934 31.3461 13.3782 30.8954 13.7075C30.4448 14.0325 29.8901 14.195 29.2314 14.195ZM29.3744 13.1355C29.8468 13.1355 30.2346 13.0228 30.5379 12.7975C30.8413 12.5678 31.0644 12.2537 31.2074 11.855C31.3548 11.452 31.4284 10.9948 31.4284 10.4835C31.4284 9.9635 31.3548 9.50633 31.2074 9.112C31.0644 8.71333 30.8434 8.4035 30.5444 8.1825C30.2454 7.95717 29.8663 7.8445 29.4069 7.8445C28.9303 7.8445 28.5359 7.9615 28.2239 8.1955C27.9163 8.4295 27.6866 8.74583 27.5349 9.1445C27.3876 9.54317 27.3139 9.9895 27.3139 10.4835C27.3139 10.9818 27.3898 11.4325 27.5414 11.8355C27.6931 12.2342 27.9206 12.5505 28.2239 12.7845C28.5316 13.0185 28.9151 13.1355 29.3744 13.1355ZM31.4284 14V8.8325H31.2984V4.64H32.4619V14H31.4284ZM37.325 14.195C36.636 14.195 36.0337 14.0433 35.518 13.74C35.0067 13.4323 34.608 13.0055 34.322 12.4595C34.036 11.9092 33.893 11.2678 33.893 10.5355C33.893 9.7685 34.0339 9.1055 34.3155 8.5465C34.5972 7.98317 34.9894 7.54983 35.492 7.2465C35.999 6.93883 36.5927 6.785 37.273 6.785C37.9794 6.785 38.5795 6.9475 39.0735 7.2725C39.5719 7.5975 39.9445 8.06117 40.1915 8.6635C40.4429 9.26583 40.5512 9.983 40.5165 10.815H39.3465V10.399C39.3335 9.53667 39.158 8.89317 38.82 8.4685C38.482 8.0395 37.9794 7.825 37.312 7.825C36.597 7.825 36.0532 8.05467 35.6805 8.514C35.3079 8.97333 35.1215 9.632 35.1215 10.49C35.1215 11.3177 35.3079 11.959 35.6805 12.414C36.0532 12.869 36.584 13.0965 37.273 13.0965C37.7367 13.0965 38.1397 12.9903 38.482 12.778C38.8244 12.5657 39.093 12.2602 39.288 11.8615L40.3995 12.245C40.1265 12.8647 39.7149 13.3457 39.1645 13.688C38.6185 14.026 38.0054 14.195 37.325 14.195ZM34.7315 10.815V9.8855H39.9185V10.815H34.7315ZM41.9637 14V6.98H42.9972V8.6765L42.8282 8.4555C42.9105 8.23883 43.0167 8.0395 43.1467 7.8575C43.281 7.6755 43.4305 7.526 43.5952 7.409C43.7772 7.26167 43.983 7.149 44.2127 7.071C44.4424 6.993 44.6764 6.9475 44.9147 6.9345C45.153 6.91717 45.3762 6.93233 45.5842 6.98V8.0655C45.3415 8.0005 45.075 7.98317 44.7847 8.0135C44.4944 8.04383 44.2257 8.15 43.9787 8.332C43.7534 8.49233 43.5779 8.68733 43.4522 8.917C43.3309 9.14667 43.2464 9.39583 43.1987 9.6645C43.151 9.92883 43.1272 10.1997 43.1272 10.477V14H41.9637Z" fill="#AFAFAF"/>
<path d="M19.625 31V29.1175H14.75V27.6325L18.26 20.2H20.0525L16.5425 27.6325H19.625V24.7075H21.215V27.6325H22.2875V29.1175H21.215V31H19.625ZM24.0651 31V29.3425H25.7226V31H24.0651ZM27.7871 30.9925L27.7946 29.5975L32.4971 25.3825C32.8771 25.0475 33.1346 24.7275 33.2696 24.4225C33.4096 24.1175 33.4796 23.8125 33.4796 23.5075C33.4796 23.1225 33.3946 22.7775 33.2246 22.4725C33.0546 22.1625 32.8196 21.9175 32.5196 21.7375C32.2196 21.5575 31.8746 21.4675 31.4846 21.4675C31.0846 21.4675 30.7271 21.5625 30.4121 21.7525C30.1021 21.9375 29.8596 22.185 29.6846 22.495C29.5096 22.805 29.4246 23.14 29.4296 23.5H27.8246C27.8246 22.8 27.9821 22.1875 28.2971 21.6625C28.6171 21.1325 29.0546 20.72 29.6096 20.425C30.1646 20.125 30.7996 19.975 31.5146 19.975C32.1946 19.975 32.8046 20.13 33.3446 20.44C33.8846 20.745 34.3096 21.165 34.6196 21.7C34.9346 22.235 35.0921 22.845 35.0921 23.53C35.0921 24.025 35.0271 24.445 34.8971 24.79C34.7671 25.135 34.5721 25.455 34.3121 25.75C34.0521 26.045 33.7271 26.365 33.3371 26.71L29.7071 29.95L29.5346 29.5H35.0921V30.9925H27.7871Z" fill="#48525B"/>
<path d="M10 9C10 11.7614 7.76142 14 5 14C2.23858 14 0 11.7614 0 9C0 6.23858 2.23858 4 5 4C7.76142 4 10 6.23858 10 9Z" fill="#FDA800"/>
</svg>
