<svg width="68" height="76" viewBox="0 0 68 76" fill="none" xmlns="http://www.w3.org/2000/svg">
<g filter="url(#filter0_f_21_9395)">
<path fill-rule="evenodd" clip-rule="evenodd" d="M34 66.9999C48.0833 66.9999 59.5 65.5827 59.5 63.8345C59.5 62.0864 48.0833 60.6692 34 60.6692C19.9167 60.6692 8.5 62.0864 8.5 63.8345C8.5 65.5827 19.9167 66.9999 34 66.9999Z" fill="black" fill-opacity="0.2"/>
</g>
<rect x="4" width="60" height="63.3071" rx="20" fill="white"/>
<mask id="mask0_21_9395" style="mask-type:luminance" maskUnits="userSpaceOnUse" x="4" y="0" width="60" height="64">
<rect x="4" width="60" height="63.3071" rx="20" fill="white"/>
</mask>
<g mask="url(#mask0_21_9395)">
<path fill-rule="evenodd" clip-rule="evenodd" d="M33.4354 -6.33081C33.2582 -6.33081 33.1147 -6.18722 33.1147 -6.01009V-1.07775C33.1147 -0.29463 32.4798 0.340214 31.6967 0.340214C30.9136 0.340214 30.2787 0.975057 30.2787 1.75817V24.4376C30.2787 25.4662 29.4449 26.3001 28.4162 26.3001C27.3876 26.3001 26.5537 25.4662 26.5537 24.4376V19.2865C26.5537 18.7447 26.1145 18.3055 25.5728 18.3055H25.3502C24.9314 18.3055 24.5919 17.966 24.5919 17.5472C24.5919 16.997 24.0242 16.6299 23.5224 16.8557L20.4699 18.2293C20.3582 18.2796 20.2372 18.3055 20.1147 18.3055C19.6367 18.3055 19.2492 17.918 19.2492 17.44V14.6917C19.2492 13.9196 19.0019 13.1677 18.5436 12.5464L18.2466 12.1438C16.1944 9.36171 12.0348 9.36176 9.9826 12.1439C9.33144 13.0267 8.98012 14.0948 8.98012 15.1918V28.6298C8.98012 29.2953 8.44057 29.8349 7.77499 29.8349C7.10941 29.8349 6.56986 30.3745 6.56986 31.04V31.4218C6.56986 32.2982 5.85939 33.0087 4.98297 33.0087H4.79165C3.80957 33.0087 3.01343 32.2125 3.01343 31.2305V21.5125C3.01343 20.7079 2.36116 20.0557 1.55655 20.0557C0.738907 20.0557 0.0813713 19.3829 0.100044 18.5655L0.14938 16.4057C0.170986 15.4597 -0.589939 14.6812 -1.53614 14.6812H-2.45247C-2.87753 14.6812 -3.22211 14.3367 -3.22211 13.9116C-3.22211 13.4865 -3.56668 13.142 -3.99174 13.142H-4.99938C-5.94156 13.142 -6.72002 12.4067 -6.77377 11.4661L-7.20982 3.83365L-7.72294 12.8196C-7.73328 13.0005 -7.88301 13.142 -8.06425 13.142C-8.25305 13.142 -8.40611 13.295 -8.40611 13.4838V14.2379C-8.40611 14.4828 -8.60459 14.6812 -8.84943 14.6812C-9.09822 14.6812 -9.29831 14.8859 -9.29263 15.1347L-8.98171 28.7527C-8.97768 28.9292 -9.1197 29.0745 -9.2963 29.0745C-9.47009 29.0745 -9.61097 28.9336 -9.61097 28.7598V24.7158C-9.61097 23.4779 -10.2517 22.3282 -11.3046 21.6771L-12.3905 21.0056C-14.2966 19.8268 -16.7565 21.1978 -16.7565 23.439C-16.7565 25.0191 -18.0375 26.3001 -19.6177 26.3001H-20.7801C-22.5045 26.3001 -23.9023 24.9022 -23.9023 23.1779V22.2611C-23.9023 21.0431 -24.8898 20.0557 -26.1078 20.0557H-27.0793C-27.7608 20.0557 -28.3133 19.5032 -28.3133 18.8216C-28.3133 17.8086 -29.4664 17.2271 -30.281 17.8294L-33.6232 20.3005C-34.553 20.9879 -35.8692 20.3241 -35.8692 19.1678C-35.8692 18.0115 -37.1855 17.3477 -38.1153 18.0352L-43.9461 22.3463C-45.2379 23.3015 -46 24.8128 -46 26.4193V71.0505C-46 75.2234 -42.6172 78.6062 -38.4443 78.6062H-35.8692H-28.6352H-28.3133H-23.9023H-16.7565H-9.61097H-8.13002H-1.71972H-0.984467H2.60011H3.01343H8.98012H12.8692H19.2492H26.5537H30.2787H36.5923H39.2912H45.6219H47.3385H53.1518H56.3172H61.4304H63.2829H65.9199H70.4091H71.5617H76.051H78.4736H80.5405H88.6041H91.945H96.2903H100.636H103.982H104.981H109.835H111.127C113.542 78.6062 115.5 76.6484 115.5 74.2333V26.9575C115.5 26.0181 114.738 25.2565 113.799 25.2565C112.844 25.2565 112.077 24.4711 112.099 23.5168L112.216 18.3814C112.262 16.3516 110.629 14.6812 108.599 14.6812C106.601 14.6812 104.981 13.0616 104.981 11.0636V1.54571C104.981 0.345792 104.009 -0.626936 102.809 -0.626936H102.263C101.365 -0.626936 100.636 0.101504 100.636 1.00008C100.636 1.89865 99.9076 2.6271 99.0091 2.6271H97.7799C96.9572 2.6271 96.2903 3.29403 96.2903 4.11672C96.2903 4.93942 95.6233 5.60635 94.8006 5.60635H94.1176C92.9177 5.60635 91.945 6.57908 91.945 7.779V19.2958C91.945 20.2183 91.1971 20.9662 90.2745 20.9662C89.352 20.9662 88.6041 20.2183 88.6041 19.2958V14.4196C88.6041 14.0911 88.3378 13.8248 88.0093 13.8248H87.8083C87.5908 13.8248 87.4145 13.6485 87.4145 13.431C87.4145 13.2135 87.2382 13.0372 87.0207 13.0372H80.0572C79.8397 13.0372 79.6634 13.2135 79.6634 13.431C79.6634 13.6485 79.4871 13.8248 79.2696 13.8248H79.0685C78.7399 13.8248 78.4736 14.0912 78.4736 14.4197V27.5046C78.4736 28.1736 77.9312 28.7159 77.2623 28.7159C76.5933 28.7159 76.051 28.1736 76.051 27.5046V10.1729C76.051 9.84421 75.7845 9.57779 75.4559 9.57779H75.2546C75.0371 9.57779 74.8608 9.40148 74.8608 9.18399C74.8608 8.96651 74.6845 8.7902 74.467 8.7902H67.5038C67.2863 8.7902 67.11 8.96651 67.11 9.18399C67.11 9.40148 66.9337 9.57779 66.7162 9.57779H66.515C66.1863 9.57779 65.9199 9.84421 65.9199 10.1728V19.2799C65.9199 20.0081 65.3296 20.5984 64.6014 20.5984C63.8732 20.5984 63.2829 20.0081 63.2829 19.2799V14.4197C63.2829 14.0912 63.0165 13.8248 62.688 13.8248H62.4868C62.2693 13.8248 62.093 13.6485 62.093 13.431C62.093 13.2135 61.9167 13.0372 61.6992 13.0372H54.736C54.5185 13.0372 54.3422 13.2135 54.3422 13.431C54.3422 13.6485 54.1659 13.8248 53.9484 13.8248H53.747C53.4183 13.8248 53.1518 14.0913 53.1518 14.42V15.6731C53.1518 16.125 52.9863 16.5612 52.6865 16.8993L51.523 18.2116C50.97 18.8353 50.6647 19.6399 50.6647 20.4734V22.2195C50.6647 23.138 49.9201 23.8826 49.0016 23.8826H48.7967C47.9913 23.8826 47.3385 23.2298 47.3385 22.4244V21.8245C47.3385 21.3505 46.9542 20.9662 46.4802 20.9662C46.0062 20.9662 45.6219 20.582 45.6219 20.1079V16.9902C45.6219 15.242 44.2047 13.8248 42.4566 13.8248H42.2121C40.5989 13.8248 39.2912 12.5171 39.2912 10.904C39.2912 10.0723 38.9367 9.28005 38.3165 8.72591L37.9417 8.39109C37.0831 7.62393 36.5923 6.52711 36.5923 5.37569V1.75831C36.5923 0.975117 35.9574 0.340214 35.1742 0.340214C34.391 0.340214 33.7561 -0.294689 33.7561 -1.07788V-6.01009C33.7561 -6.18722 33.6125 -6.33081 33.4354 -6.33081Z" fill="#4CE5B1" fill-opacity="0.1"/>
<path fill-rule="evenodd" clip-rule="evenodd" d="M67.761 24.7954C67.6277 24.7954 67.5197 24.9034 67.5197 25.0367V28.7423C67.5197 29.3314 67.0421 29.809 66.4529 29.809C65.8638 29.809 65.3862 30.2866 65.3862 30.8758V47.9181C65.3862 48.6919 64.7588 49.3193 63.985 49.3193C63.2111 49.3193 62.5838 48.6919 62.5838 47.9181V44.0489C62.5838 43.6413 62.2534 43.3109 61.8458 43.3109H61.6779C61.363 43.3109 61.1078 43.0557 61.1078 42.7409C61.1078 42.3273 60.6813 42.0514 60.3041 42.221L58.0067 43.2537C57.9227 43.2914 57.8317 43.3109 57.7397 43.3109C57.38 43.3109 57.0884 43.0194 57.0884 42.6597V40.5955C57.0884 40.0149 56.9023 39.4495 56.5574 38.9824L56.333 38.6785C54.789 36.5875 51.662 36.5876 50.1181 38.6786C49.6275 39.343 49.3628 40.1472 49.3628 40.9731V51.0692C49.3628 51.5699 48.9568 51.9758 48.4561 51.9758C47.9554 51.9758 47.5495 52.3818 47.5495 52.8825V53.1685C47.5495 53.8272 47.0155 54.3611 46.3568 54.3611H46.2117C45.4728 54.3611 44.8739 53.7622 44.8739 53.0233V45.7223C44.8739 45.1169 44.3832 44.6262 43.7778 44.6262C43.1627 44.6262 42.668 44.1201 42.6821 43.5051L42.7192 41.8844C42.7354 41.1728 42.163 40.5871 41.4511 40.5871H40.7612C40.4417 40.5871 40.1828 40.3281 40.1828 40.0087C40.1828 39.6892 39.9238 39.4302 39.6043 39.4302H38.8456C38.1368 39.4302 37.5512 38.8771 37.5107 38.1695L37.1827 32.4345L36.7967 39.1877C36.7889 39.3238 36.6763 39.4302 36.5399 39.4302C36.3979 39.4302 36.2827 39.5454 36.2827 39.6874V40.2536C36.2827 40.4378 36.1334 40.5871 35.9492 40.5871C35.762 40.5871 35.6115 40.7411 35.6158 40.9282L35.8497 51.1622C35.8527 51.2951 35.7459 51.4044 35.613 51.4044C35.4823 51.4044 35.3763 51.2984 35.3763 51.1676V48.1309C35.3763 47.1992 34.8937 46.3339 34.1011 45.8442L33.2821 45.3383C31.849 44.4529 30.0005 45.4838 30.0005 47.1682C30.0005 48.3562 29.0375 49.3193 27.8495 49.3193H26.9711C25.6751 49.3193 24.6246 48.2687 24.6246 46.9728V46.2855C24.6246 45.3691 23.8817 44.6262 22.9653 44.6262H22.2339C21.7215 44.6262 21.3061 44.2108 21.3061 43.6984C21.3061 42.937 20.4395 42.4997 19.827 42.9521L17.3102 44.811C16.611 45.3275 15.6216 44.8283 15.6216 43.959C15.6216 43.0896 14.6322 42.5904 13.933 43.1069L9.54671 46.3467C8.57398 47.0652 8 48.2027 8 49.412V82.9458C8 86.0851 10.5449 88.6301 13.6843 88.6301H15.6216H21.0639H21.3061H24.6246H30.0005H35.3763H36.4904H41.313H41.8662H44.5629H44.8739H49.3628H52.2886H57.0884H62.5838H65.3862H70.136H72.1665H76.9292H78.2206H82.5941H84.9755H88.8223H90.2159H92.1998H95.5772H96.4443H99.8216H101.644H103.199H109.266H111.779H115.048H118.318H120.834H121.587H125.238H126.21C128.027 88.6301 129.5 87.1572 129.5 85.3402V49.8146C129.5 49.1079 128.927 48.5349 128.22 48.5349C127.502 48.5349 126.925 47.9441 126.941 47.2261L127.029 43.3708C127.064 41.8438 125.836 40.5871 124.308 40.5871C122.805 40.5871 121.587 39.3686 121.587 37.8655V30.7167C121.587 29.814 120.855 29.0822 119.952 29.0822H119.54C118.865 29.0822 118.318 29.6296 118.318 30.305C118.318 30.9803 117.77 31.5277 117.095 31.5277H116.168C115.549 31.5277 115.048 32.029 115.048 32.6473C115.048 33.2656 114.547 33.7668 113.929 33.7668H113.414C112.511 33.7668 111.779 34.4986 111.779 35.4013V44.0539C111.779 44.7479 111.216 45.3106 110.522 45.3106C109.828 45.3106 109.266 44.7479 109.266 44.0539V40.3909C109.266 40.1438 109.065 39.9434 108.818 39.9434H108.667C108.503 39.9434 108.371 39.8109 108.371 39.6475C108.371 39.484 108.238 39.3515 108.075 39.3515H102.835C102.672 39.3515 102.539 39.484 102.539 39.6475C102.539 39.8109 102.407 39.9434 102.243 39.9434H102.092C101.845 39.9434 101.644 40.1438 101.644 40.391V50.2236C101.644 50.7269 101.236 51.1349 100.733 51.1349C100.23 51.1349 99.8216 50.7269 99.8216 50.2236V37.1992C99.8216 36.952 99.6212 36.7516 99.3739 36.7516H99.2222C99.0588 36.7516 98.9263 36.6191 98.9263 36.4556C98.9263 36.2922 98.7938 36.1596 98.6303 36.1596H93.3911C93.2277 36.1596 93.0952 36.2922 93.0952 36.4556C93.0952 36.6191 92.9627 36.7516 92.7992 36.7516H92.6475C92.4002 36.7516 92.1998 36.952 92.1998 37.1992V44.0422C92.1998 44.59 91.7557 45.0341 91.2079 45.0341C90.66 45.0341 90.2159 44.59 90.2159 44.0422V40.391C90.2159 40.1438 90.0155 39.9434 89.7683 39.9434H89.6167C89.4533 39.9434 89.3208 39.8109 89.3208 39.6475C89.3208 39.484 89.1883 39.3515 89.0248 39.3515H83.7856C83.6222 39.3515 83.4897 39.484 83.4897 39.6475C83.4897 39.8109 83.3572 39.9434 83.1937 39.9434H83.0419C82.7946 39.9434 82.5941 40.1439 82.5941 40.3912V41.3322C82.5941 41.672 82.4696 42 82.244 42.2541L81.3687 43.2403C80.9527 43.709 80.7229 44.314 80.7229 44.9407V46.2512C80.7229 46.9422 80.1628 47.5024 79.4718 47.5024H79.3165C78.7113 47.5024 78.2206 47.0118 78.2206 46.4065V45.9563C78.2206 45.5997 77.9315 45.3106 77.5749 45.3106C77.2183 45.3106 76.9292 45.0215 76.9292 44.6649V42.3248C76.9292 41.0096 75.863 39.9434 74.5478 39.9434H74.3612C73.1491 39.9434 72.1665 38.9608 72.1665 37.7487C72.1665 37.1234 71.8997 36.5278 71.4332 36.1114L71.1512 35.8597C70.5053 35.2832 70.136 34.4585 70.136 33.5927V30.8759C70.136 30.2867 69.6583 29.809 69.0691 29.809C68.4799 29.809 68.0023 29.3314 68.0023 28.7422V25.0367C68.0023 24.9034 67.8942 24.7954 67.761 24.7954Z" fill="#FFB000" fill-opacity="0.2"/>
<path fill-rule="evenodd" clip-rule="evenodd" d="M-12.997 39.5669C-12.8956 39.5669 -12.8133 39.6491 -12.8133 39.7506V42.5668C-12.8133 43.0153 -12.4497 43.3789 -12.0012 43.3789C-11.5527 43.3789 -11.1891 43.7425 -11.1891 44.1911V57.1464C-11.1891 57.7355 -10.7115 58.2131 -10.1223 58.2131C-9.53314 58.2131 -9.05553 57.7355 -9.05553 57.1464V54.2066C-9.05553 53.8963 -8.80399 53.6448 -8.49371 53.6448H-8.36544C-8.126 53.6448 -7.93188 53.4507 -7.93188 53.2112C-7.93188 52.8968 -7.60762 52.6869 -7.32076 52.8157L-5.57085 53.6013C-5.50698 53.63 -5.43776 53.6448 -5.36775 53.6448C-5.09386 53.6448 -4.87184 53.4228 -4.87184 53.1489V51.5807C-4.87184 51.1389 -4.73009 50.7088 -4.46744 50.3535L-4.29565 50.1212C-3.12008 48.5312 -0.741814 48.5313 0.433723 50.1213C0.807903 50.6274 1.00984 51.2402 1.00984 51.8696V59.5428C1.00984 59.924 1.31887 60.233 1.70008 60.233C2.0813 60.233 2.39033 60.542 2.39033 60.9233V61.1398C2.39033 61.6406 2.79631 62.0466 3.29712 62.0466H3.40881C3.9713 62.0466 4.42729 61.5906 4.42729 61.0281V55.4793C4.42729 55.0185 4.80087 54.6449 5.26171 54.6449C5.73002 54.6449 6.10662 54.2596 6.09591 53.7914L6.06775 52.5615C6.05534 52.0197 6.49116 51.5738 7.03311 51.5738H7.55894C7.80183 51.5738 7.99873 51.3769 7.99873 51.134C7.99873 50.8911 8.19563 50.6942 8.43852 50.6942H9.01674C9.55636 50.6942 10.0022 50.2731 10.0331 49.7344L10.2827 45.3752L10.5766 50.5096C10.5825 50.6132 10.6683 50.6942 10.7721 50.6942C10.8802 50.6942 10.9679 50.7819 10.9679 50.89V51.3199C10.9679 51.4601 11.0816 51.5738 11.2218 51.5738C11.3643 51.5738 11.4789 51.691 11.4756 51.8335L11.2976 59.6142C11.2953 59.7153 11.3766 59.7985 11.4778 59.7985C11.5773 59.7985 11.658 59.7178 11.658 59.6183V57.3118C11.658 56.6021 12.0258 55.943 12.6298 55.5703L13.2553 55.1844C14.3454 54.5118 15.7506 55.296 15.7506 56.5769C15.7506 57.4806 16.4832 58.2131 17.3869 58.2131H18.0593C19.0447 58.2131 19.8434 57.4143 19.8434 56.429V55.9081C19.8434 55.2104 20.409 54.6449 21.1066 54.6449H21.664C22.0538 54.6449 22.3698 54.3289 22.3698 53.9391C22.3698 53.36 23.0287 53.0273 23.4946 53.3711L25.413 54.7862C25.9452 55.1787 26.6975 54.7988 26.6975 54.1375C26.6975 53.4763 27.4499 53.0964 27.9821 53.4889L31.321 55.9519C32.0624 56.4988 32.5 57.3654 32.5 58.2867V83.7748C32.5 86.1648 30.5625 88.1023 28.1725 88.1023H26.6975H22.5542H22.3698H19.8434H15.7506H11.658H10.8098H7.13823H6.71711H4.66403H4.42729H1.00984H-1.21765H-4.87184H-9.05553H-11.1891H-14.8052H-16.351H-19.977H-20.9601H-24.2898H-26.1027H-29.0314H-30.0924H-31.6027H-34.174H-34.8341H-37.4053H-38.7929H-39.9767H-44.5952H-46.5087H-48.9975H-51.4866H-53.4027H-53.9754H-56.7553H-57.4954C-58.8787 88.1023 -60 86.981 -60 85.5977V58.591C-60 58.053 -59.5638 57.6168 -59.0258 57.6168C-58.479 57.6168 -58.0393 57.1669 -58.0518 56.6203L-58.1188 53.6931C-58.1454 52.5306 -57.2102 51.5738 -56.0474 51.5738C-54.903 51.5738 -53.9754 50.6461 -53.9754 49.5018V44.0706C-53.9754 43.3834 -53.4183 42.8263 -52.731 42.8263H-52.4163C-51.9029 42.8263 -51.4866 43.2425 -51.4866 43.756C-51.4866 44.2694 -51.0704 44.6857 -50.5569 44.6857H-49.8487C-49.3786 44.6857 -48.9975 45.0668 -48.9975 45.5369C-48.9975 46.007 -48.6164 46.3881 -48.1463 46.3881H-47.7531C-47.0659 46.3881 -46.5087 46.9453 -46.5087 47.6325V54.2084C-46.5087 54.7368 -46.0804 55.1652 -45.552 55.1652C-45.0236 55.1652 -44.5952 54.7368 -44.5952 54.2084V51.4251C-44.5952 51.2369 -44.4427 51.0844 -44.2545 51.0844H-44.1389C-44.0146 51.0844 -43.9139 50.9836 -43.9139 50.8594C-43.9139 50.7351 -43.8131 50.6343 -43.6888 50.6343H-39.6994C-39.5751 50.6343 -39.4744 50.7351 -39.4744 50.8594C-39.4744 50.9836 -39.3736 51.0844 -39.2494 51.0844H-39.1337C-38.9455 51.0844 -38.7929 51.237 -38.7929 51.4251V58.8998C-38.7929 59.283 -38.4823 59.5936 -38.0991 59.5936C-37.716 59.5936 -37.4053 59.283 -37.4053 58.8998V48.9983C-37.4053 48.8101 -37.2528 48.6575 -37.0645 48.6575H-36.9487C-36.8244 48.6575 -36.7237 48.5568 -36.7237 48.4325C-36.7237 48.3082 -36.623 48.2075 -36.4987 48.2075H-32.5094C-32.3851 48.2075 -32.2844 48.3082 -32.2844 48.4325C-32.2844 48.5568 -32.1836 48.6575 -32.0594 48.6575H-31.9436C-31.7553 48.6575 -31.6027 48.8101 -31.6027 48.9983V54.1998C-31.6027 54.6169 -31.2646 54.955 -30.8476 54.955C-30.4305 54.955 -30.0924 54.6169 -30.0924 54.1998V51.4251C-30.0924 51.237 -29.9398 51.0844 -29.7516 51.0844H-29.6359C-29.5116 51.0844 -29.4109 50.9836 -29.4109 50.8594C-29.4109 50.7351 -29.3101 50.6343 -29.1858 50.6343H-25.1966C-25.0723 50.6343 -24.9716 50.7351 -24.9716 50.8594C-24.9716 50.9836 -24.8708 51.0844 -24.7465 51.0844H-24.6307C-24.4424 51.0844 -24.2898 51.237 -24.2898 51.4253V52.1401C-24.2898 52.3986 -24.1949 52.6481 -24.0232 52.8413L-23.3569 53.591C-23.0402 53.9474 -22.8652 54.4077 -22.8652 54.8845V55.8792C-22.8652 56.4053 -22.4387 56.8317 -21.9127 56.8317H-21.7934C-21.3332 56.8317 -20.9601 56.4587 -20.9601 55.9985V55.6568C-20.9601 55.3853 -20.74 55.1652 -20.4685 55.1652C-20.197 55.1652 -19.977 54.9451 -19.977 54.6736V52.8974C-19.977 51.8961 -19.1653 51.0844 -18.164 51.0844H-18.0193C-17.0979 51.0844 -16.351 50.3375 -16.351 49.4161C-16.351 48.9405 -16.1479 48.4874 -15.7928 48.1708L-15.5781 47.9794C-15.0864 47.5411 -14.8052 46.9137 -14.8052 46.255V44.1911C-14.8052 43.7426 -14.4415 43.3789 -13.993 43.3789C-13.5444 43.3789 -13.1807 43.0153 -13.1807 42.5667V39.7506C-13.1807 39.6491 -13.0985 39.5669 -12.997 39.5669Z" fill="#FFB000" fill-opacity="0.2"/>
<path d="M47.8067 45.7313L46.7483 44.6684L46.7456 44.6712L47.8067 45.7313ZM20.9164 45.7313L21.979 44.6726L21.9733 44.667L20.9164 45.7313ZM15.2837 29.4226L16.7732 29.6L16.7736 29.5966L15.2837 29.4226ZM53.4297 29.4337L51.9396 29.6059L51.9402 29.6114L53.4297 29.4337ZM34.726 12.1877L34.7637 10.6881L34.726 12.1877ZM39.2068 50.7125L38.8238 49.2622L39.2068 50.7125ZM52.0715 31.7618C52.0715 36.8224 50.0326 41.3979 46.7483 44.6685L48.8651 46.7942C52.6998 42.9756 55.0715 37.6411 55.0715 31.7618H52.0715ZM46.7456 44.6712C43.5441 47.8755 39.1775 49.836 34.3567 49.836V52.836C40.0131 52.836 45.1321 50.5306 48.8678 46.7915L46.7456 44.6712ZM34.3567 49.836C29.5448 49.836 25.1695 47.875 21.979 44.6726L19.8537 46.79C23.581 50.5311 28.7107 52.836 34.3567 52.836V49.836ZM21.9733 44.667C18.6807 41.3971 16.6431 36.8224 16.6431 31.7618H13.6431C13.6431 37.6411 16.0136 42.9764 19.8594 46.7957L21.9733 44.667ZM16.6431 31.7618C16.6431 31.0301 16.6889 30.3077 16.7732 29.6L13.7942 29.2451C13.6967 30.064 13.6431 30.9051 13.6431 31.7618H16.6431ZM16.7736 29.5966C17.8225 20.6176 25.3189 13.6876 34.3567 13.6876V10.6876C23.7347 10.6876 15.0121 18.8201 13.7938 29.2485L16.7736 29.5966ZM34.3567 13.6876C43.4057 13.6876 50.9009 20.6176 51.9396 29.6059L54.9197 29.2615C53.7131 18.8201 44.9893 10.6876 34.3567 10.6876V13.6876ZM51.9402 29.6114C52.0248 30.32 52.0715 31.0324 52.0715 31.7618H55.0715C55.0715 30.9029 55.0164 30.0714 54.9191 29.256L51.9402 29.6114ZM40.2761 32.1187C38.5053 32.3555 36.657 32.4799 34.726 32.4799V35.4799C36.7863 35.4799 38.7675 35.3471 40.6736 35.0923L40.2761 32.1187ZM34.726 32.4799C32.5395 32.4799 30.3843 32.3214 28.298 32.0199L27.8689 34.9891C30.0966 35.311 32.3952 35.4799 34.726 35.4799V32.4799ZM22.1382 18.6873C25.4609 15.472 29.9558 13.568 34.6882 13.6872L34.7637 10.6881C29.1712 10.5473 23.9118 12.7964 20.052 16.5315L22.1382 18.6873ZM34.6882 13.6872C39.2601 13.8023 43.3822 15.6117 46.4642 18.5486L48.5338 16.3768C44.9255 12.9384 40.0972 10.8225 34.7637 10.6881L34.6882 13.6872ZM38.8238 49.2622C37.4055 49.6367 35.9111 49.8362 34.3568 49.8362V52.8362C36.1694 52.8362 37.9213 52.6034 39.5898 52.1628L38.8238 49.2622ZM34.3568 49.8362C32.7949 49.8362 31.2915 49.634 29.8646 49.2543L29.0932 52.1534C30.7717 52.6 32.5344 52.8362 34.3568 52.8362V49.8362ZM26.7081 38.3742C28.9019 36.5618 31.7189 35.4801 34.7259 35.4801V32.4801C30.9942 32.4801 27.5074 33.8224 24.7973 36.0614L26.7081 38.3742ZM34.7259 35.4801C37.6421 35.4801 40.2019 36.4971 42.1813 38.1961L44.1352 35.9197C41.6189 33.7598 38.3681 32.4801 34.7259 32.4801V35.4801ZM29.8646 49.2543C27.3644 48.5891 25.5906 46.6413 24.9485 44.4389C24.3132 42.2595 24.8062 39.9455 26.7081 38.3742L24.7973 36.0614C21.8389 38.5056 21.1488 42.1242 22.0684 45.2786C22.9814 48.4101 25.5008 51.1976 29.0932 52.1534L29.8646 49.2543ZM39.5898 52.1628C43.1933 51.2112 45.7492 48.4116 46.7107 45.2626C47.6787 42.0919 47.0586 38.4289 44.1352 35.9197L42.1813 38.1961C44.0579 39.8068 44.5201 42.1636 43.8414 44.3865C43.1561 46.6311 41.3363 48.5988 38.8238 49.2622L39.5898 52.1628ZM28.298 32.0199C24.7628 31.509 21.9809 29.2689 20.7251 26.6054C19.4938 23.994 19.7263 21.0213 22.1382 18.6873L20.052 16.5315C16.6073 19.8648 16.301 24.2569 18.0116 27.8848C19.6975 31.4605 23.3382 34.3343 27.8689 34.9891L28.298 32.0199ZM40.6736 35.0923C45.2768 34.477 48.9567 31.5322 50.6488 27.8887C52.3627 24.1982 52.0444 19.7222 48.5338 16.3768L46.4642 18.5486C48.9207 20.8895 49.1753 23.9389 47.9279 26.6251C46.6585 29.3584 43.8428 31.642 40.2761 32.1187L40.6736 35.0923Z" fill="#FFB000"/>
</g>
<defs>
<filter id="filter0_f_21_9395" x="0.345155" y="52.5143" width="67.3097" height="22.6405" filterUnits="userSpaceOnUse" color-interpolation-filters="sRGB">
<feFlood flood-opacity="0" result="BackgroundImageFix"/>
<feBlend mode="normal" in="SourceGraphic" in2="BackgroundImageFix" result="shape"/>
<feGaussianBlur stdDeviation="4.07742" result="effect1_foregroundBlur_21_9395"/>
</filter>
</defs>
</svg>
