<svg width="120" height="120" viewBox="0 0 120 120" fill="none" xmlns="http://www.w3.org/2000/svg">
<circle cx="60" cy="60" r="56" stroke="#E9ECEF" stroke-width="4"/>
<path d="M60 4C71.5562 4 82.8294 7.57516 92.2735 14.2351C101.718 20.8951 108.87 30.3137 112.75 41.1992C116.629 52.0846 117.047 63.9038 113.944 75.0357C110.841 86.1676 104.37 96.0669 95.4192 103.376C86.4681 110.685 75.4749 115.046 63.9475 115.861C52.42 116.675 40.9228 113.904 31.0328 107.926C21.1428 101.948 13.3442 93.0572 8.70683 82.4723C4.06942 71.8874 2.82023 60.1271 5.13061 48.8042" stroke="#48525B" stroke-width="8" stroke-linecap="round"/>
<circle cx="59.6793" cy="59.6793" r="42.6793" stroke="#E9ECEF" stroke-width="4"/>
<path d="M59.6778 17C65.8664 17 71.981 18.3459 77.5977 20.9443C83.2144 23.5428 88.1988 27.3316 92.2054 32.0482C96.212 36.7648 99.1449 42.2963 100.801 48.2593C102.457 54.2223 102.796 60.474 101.795 66.5812C100.795 72.6883 98.4775 78.5048 95.005 83.6274C91.5324 88.7499 86.9874 93.056 81.6849 96.2471C76.3825 99.4382 70.4495 101.438 64.2972 102.108C58.1449 102.778 51.9206 102.101 46.0557 100.126" stroke="#FDA800" stroke-width="8" stroke-linecap="round"/>
</svg>
