<svg width="19" height="22" viewBox="0 0 19 22" fill="none" xmlns="http://www.w3.org/2000/svg">
<path d="M9.98936 17.9745L6.94565 15.0309C6.76468 14.9395 6.54725 14.9513 6.37397 15.0551C6.19921 15.1579 6.09344 15.3428 6.09344 15.5411V17.3129H4.92161C3.47611 17.3129 2.3435 16.1805 2.3435 14.7348L2.34366 11.4538V7.2653C2.34366 5.827 3.51352 4.65714 4.95182 4.65714C5.59888 4.65714 6.12365 4.13237 6.12365 3.48531C6.12365 2.83825 5.59888 2.31348 4.95182 2.31348C2.22154 2.31348 0 4.53502 0 7.2653V14.7349C0 17.4487 2.20781 19.6566 4.92169 19.6566H6.09352V21.4289C6.09352 21.6267 6.19929 21.8121 6.37388 21.9149C6.46691 21.9706 6.57415 22.0001 6.68123 22.0001C6.77164 22.0001 6.8622 21.9795 6.94558 21.9389L9.98928 18.9953C10.1703 18.8266 10.312 18.7009 10.312 18.4846C10.312 18.2689 10.191 18.1516 9.98928 17.9744L9.98936 17.9745Z" fill="white"/>
<path d="M13.3287 2.31341H12.4214V0.571024C12.4214 0.373211 12.3058 0.187828 12.1312 0.0850079C12.0378 0.0294255 11.9258 0 11.8188 0C11.7284 0 11.6355 0.0205986 11.5521 0.0611402L8.50696 3.00478C8.32599 3.17382 8.18359 3.29937 8.18359 3.51565C8.18359 3.73128 8.30424 3.84866 8.50614 4.02586L11.5498 6.9695C11.7308 7.06088 11.9581 7.04911 12.1314 6.9453C12.306 6.84198 12.4214 6.65757 12.4214 6.45912V4.65705H13.3285C14.767 4.65705 15.9369 5.82691 15.9369 7.26521V14.7042C15.9369 16.1427 14.767 17.3126 13.3287 17.3126C12.6813 17.3126 12.1569 17.837 12.1569 18.4844C12.1569 19.1318 12.6813 19.6562 13.3287 19.6562C16.059 19.6562 18.2805 17.4347 18.2805 14.7044V7.26496C18.2805 4.53468 16.059 2.31314 13.3287 2.31314L13.3287 2.31341Z" fill="white"/>
</svg>
