<svg width="22" height="19" viewBox="0 0 22 19" fill="none" xmlns="http://www.w3.org/2000/svg">
<path d="M17.5045 17H17.9457C18.9805 17 19.8036 16.5284 20.5427 15.8691C22.4202 14.1942 18.0067 12.4998 16.5 12.4998" stroke="white" stroke-width="2" stroke-linecap="round" stroke-linejoin="round"/>
<path d="M14 3.06877C14.2271 3.02373 14.4629 3 14.7048 3C16.5247 3 18 4.34315 18 6C18 7.65685 16.5247 9 14.7048 9C14.4629 9 14.2271 8.97627 14 8.93123" stroke="white" stroke-width="2" stroke-linecap="round"/>
<path d="M3.78256 13.1112C2.68218 13.743 -0.202939 15.0331 1.55429 16.6474C2.41269 17.436 3.36872 18 4.57068 18H11.4293C12.6313 18 13.5873 17.436 14.4457 16.6474C16.2029 15.0331 13.3178 13.743 12.2174 13.1112C9.63708 11.6296 6.36292 11.6296 3.78256 13.1112Z" stroke="white" stroke-width="2" stroke-linecap="round" stroke-linejoin="round"/>
<path d="M12 5C12 7.20914 10.2091 9 8 9C5.79086 9 4 7.20914 4 5C4 2.79086 5.79086 1 8 1C10.2091 1 12 2.79086 12 5Z" stroke="white" stroke-width="2"/>
</svg>
